<?xml version="1.0" standalone="no"?><!DOCTYPE svg PUBLIC "-//W3C//DTD SVG 1.1//EN" "http://www.w3.org/Graphics/SVG/1.1/DTD/svg11.dtd"><svg class="icon" width="200px" height="200.00px" viewBox="0 0 1024 1024" version="1.1" xmlns="http://www.w3.org/2000/svg"><path fill="#1296db" d="M770.048 20.48h-327.68c-32.768 0-65.536 12.288-86.016 36.864L167.936 237.568c-24.576 24.576-40.96 57.344-40.96 94.208v544.768c0 69.632 57.344 126.976 126.976 126.976h516.096c69.632 0 126.976-57.344 126.976-126.976V147.456c0-69.632-57.344-126.976-126.976-126.976zM208.896 331.776c0-16.384 8.192-28.672 16.384-36.864l188.416-180.224c4.096-4.096 16.384-12.288 32.768-12.288h4.096v155.648c0 40.96-32.768 77.824-77.824 77.824h-163.84z m434.176 552.96s-4.096 0 0 0c-8.192 8.192-16.384 12.288-24.576 16.384H573.44c28.672-20.48 40.96-49.152 28.672-81.92-4.096-16.384-16.384-28.672-28.672-40.96-4.096-4.096-8.192-4.096-12.288 0l-12.288 12.288c8.192-36.864-4.096-69.632-40.96-90.112-4.096-4.096-12.288 0-12.288 8.192 0 16.384 0 32.768-12.288 49.152-4.096 4.096-8.192 12.288-12.288 16.384-57.344 45.056-65.536 86.016-36.864 118.784 4.096 4.096 8.192 12.288 16.384 12.288H397.312c-20.48-12.288-36.864-24.576-49.152-40.96-61.44-69.632-45.056-151.552 77.824-249.856 12.288-8.192 20.48-20.48 28.672-28.672 20.48-32.768 28.672-65.536 24.576-98.304 0-12.288 12.288-20.48 24.576-16.384 77.824 40.96 110.592 110.592 90.112 188.416 12.288-8.192 20.48-16.384 28.672-24.576 4.096-8.192 16.384-8.192 24.576 0 28.672 24.576 49.152 57.344 57.344 90.112 20.48 61.44-8.192 114.688-61.44 159.744z" /></svg>