<?xml version="1.0" standalone="no"?><!DOCTYPE svg PUBLIC "-//W3C//DTD SVG 1.1//EN" "http://www.w3.org/Graphics/SVG/1.1/DTD/svg11.dtd"><svg class="icon" width="200px" height="200.00px" viewBox="0 0 1024 1024" version="1.1" xmlns="http://www.w3.org/2000/svg"><path fill="#1296db" d="M295.104 899.552c0 19.648 15.936 35.552 35.552 35.552h376.896a35.552 35.552 0 1 0 0-71.104H330.656c-19.616 0-35.52 15.904-35.52 35.552z"  /><path fill="#1296db" d="M512 800c176.736 0 320-139.264 320-311.04 0-42.176-5.856-82.304-18.368-120.512-5.024-15.424-9.408-25.216-14.528-36.64a820.064 820.064 0 0 1-7.104-16.32c-8.608-20.288-20.032-37.44-33.024-54.72l-0.704-0.928c-13.216-17.504-37.952-50.336-55.2-57.024 0 26.72-53.28 120.096-73.728 124.8-8.032 1.856-7.424-12.928-6.464-35.84 1.472-35.328 3.776-90.016-23.744-132.704-45.312-70.368-118.56-116.544-118.56-84.928s-20.288 84.704-40.704 111.04c-20.448 26.304-53.568 48.928-76.608 59.52-12.256 5.664-15.648-9.696-18.72-23.648-2.72-12.32-5.184-23.52-13.312-18.24-17.472 11.36-42.24 42.976-55.296 62.848C230.272 335.168 192 403.072 192 488.96 192 660.736 335.264 800 512 800z m0-385.504c19.616 0 35.52 15.904 35.52 35.52v174.24a35.552 35.552 0 0 1-71.072 0v-174.208c0-19.648 15.904-35.552 35.52-35.552z"  /></svg>