<?xml version="1.0" standalone="no"?><!DOCTYPE svg PUBLIC "-//W3C//DTD SVG 1.1//EN" "http://www.w3.org/Graphics/SVG/1.1/DTD/svg11.dtd"><svg class="icon" width="200px" height="200.00px" viewBox="0 0 1024 1024" version="1.1" xmlns="http://www.w3.org/2000/svg"><path fill="#1296db" d="M820.906667 806.684444c-97.848889 41.528889-204.231111 61.44-300.373334 61.44-143.36 0-282.168889-39.253333-394.24-104.675555-9.671111-5.688889-17.066667 4.551111-9.102222 11.946667 104.106667 93.866667 241.208889 150.186667 393.671111 150.186666 108.657778 0 235.52-34.133333 322.56-98.417778 14.791111-10.808889 2.275556-26.737778-12.515555-20.48"  /><path fill="#1296db" d="M907.377778 757.191111c-9.671111-11.946667-91.022222-21.617778-141.084445 13.084445-7.395556 5.12-6.257778 13.084444 2.275556 11.946666 27.875556-3.413333 90.453333-10.808889 101.831111 3.413334 11.377778 14.222222-12.515556 73.386667-22.755556 99.555555-3.413333 7.964444 3.413333 11.377778 10.808889 5.12 46.08-39.253333 58.026667-121.173333 48.924445-133.12M554.666667 592.213333c-18.204444 32.995556-47.786667 52.906667-80.213334 52.906667-44.373333 0-70.542222-34.133333-70.542222-84.195556 0-98.986667 88.746667-117.191111 172.942222-117.191111v25.031111c0 45.511111 1.137778 83.057778-22.186666 123.448889z m22.186666-241.208889c-67.697778 7.395556-155.306667 12.515556-218.453333 40.391112-72.817778 31.288889-124.017778 95.573333-124.017778 190.008888 0 120.604444 76.231111 180.906667 174.08 180.906667 82.488889 0 128-19.342222 191.715556-84.195555 21.048889 30.72 27.875556 45.511111 66.56 77.368888 8.533333 4.551111 19.911111 3.982222 27.306666-2.844444 23.324444-20.48 65.422222-57.457778 89.315556-77.368889 9.671111-7.964444 7.964444-20.48 0.568889-30.72-21.617778-29.582222-44.373333-52.906667-44.373333-107.52V356.124444c0-76.8 5.688889-147.342222-51.2-199.68-44.373333-42.666667-118.328889-58.026667-175.217778-58.026666-110.364444 0-233.813333 41.528889-259.982222 178.062222-2.275556 14.222222 8.533333 21.617778 18.204444 23.893333l112.64 11.946667c10.24-0.568889 18.204444-10.808889 19.911111-21.048889 9.671111-47.217778 48.924444-69.973333 93.297778-69.973333 23.893333 0 51.2 8.533333 65.422222 30.151111 16.497778 23.893333 14.222222 56.32 14.222222 84.195555v15.36"  /></svg>