<?xml version="1.0" standalone="no"?><!DOCTYPE svg PUBLIC "-//W3C//DTD SVG 1.1//EN" "http://www.w3.org/Graphics/SVG/1.1/DTD/svg11.dtd"><svg class="icon" width="200px" height="200.00px" viewBox="0 0 1024 1024" version="1.1" xmlns="http://www.w3.org/2000/svg"><path fill="#1296db" d="M998.4 0H25.6C11.52 0 0 11.52 0 25.6v972.8c0 14.08 11.52 25.6 25.6 25.6h972.8c14.08 0 25.6-11.52 25.6-25.6V25.6c0-14.08-11.52-25.6-25.6-25.6zM560.64 260.864c-13.568-20.736-39.936-29.184-62.976-29.184-42.752 0-80.64 22.016-90.112 67.328-2.048 9.984-9.216 19.968-19.456 20.48l-108.544-11.776c-9.216-2.048-19.456-9.472-16.64-23.296 24.832-131.584 143.872-171.52 250.368-171.52 54.528 0 125.696 14.592 168.704 55.808 54.528 50.944 49.152 118.784 49.152 192.768v174.592c0 52.48 21.76 75.52 42.24 103.68 7.168 10.24 8.704 22.272-0.256 29.696-22.784 19.2-63.488 54.528-86.016 74.496l-0.256-0.256c-7.424 6.656-18.176 7.168-26.368 2.56-37.12-30.976-43.776-45.312-64.256-74.752-61.44 62.72-104.96 81.408-184.576 81.408-94.208 0-167.68-58.112-167.68-174.592 0-90.88 49.152-152.832 119.552-183.04 60.672-26.624 145.664-31.488 210.688-38.912v-14.592c0.256-26.368 2.304-57.856-13.568-80.896z m261.632 555.008c-83.968 61.952-206.08 94.976-311.04 94.976-147.2 0-279.552-54.272-379.904-144.896-7.936-7.168-0.768-16.896 8.704-11.264 108.288 62.976 241.92 100.864 380.16 100.864 93.184 0 195.584-19.456 289.792-59.392 14.08-5.888 26.112 9.472 12.288 19.712z m23.296 60.928c-6.912 5.888-13.568 2.816-10.496-4.864 10.24-25.344 32.768-82.176 22.016-95.744-10.752-13.824-71.168-6.4-98.304-3.328-8.192 1.024-9.472-6.144-2.048-11.264 48.128-33.792 126.976-24.064 136.192-12.8 9.472 11.264-2.304 90.368-47.36 128z"  /><path fill="#1296db" d="M574.464 446.464c-80.896 0-166.656 17.408-166.656 112.64 0 48.384 25.088 81.152 68.096 81.152 31.488 0 59.648-19.456 77.568-50.944 22.016-38.912 20.992-75.264 20.992-118.784v-24.064z"  /></svg>