<?xml version="1.0" standalone="no"?><!DOCTYPE svg PUBLIC "-//W3C//DTD SVG 1.1//EN" "http://www.w3.org/Graphics/SVG/1.1/DTD/svg11.dtd"><svg class="icon" width="200px" height="200.00px" viewBox="0 0 1024 1024" version="1.1" xmlns="http://www.w3.org/2000/svg"><path fill="#1296db" d="M825.002667 768.910222a19.797333 19.797333 0 0 0-11.946667 1.308445c-61.553778 28.16-121.457778 48.298667-179.655111 60.188444-125.724444 25.6-248.206222 12.174222-367.388445-40.106667-33.109333-14.620444-79.075556-39.253333-138.012444-73.955555a9.386667 9.386667 0 0 0-5.290667-2.048 10.24 10.24 0 0 0-5.290666 0.910222 9.443556 9.443556 0 0 0-3.697778 3.072c-0.910222 1.308444-1.137778 3.128889-0.398222 5.404445a18.773333 18.773333 0 0 0 4.551111 7.395555c10.410667 12.231111 23.324444 25.201778 38.627555 39.025778 15.303111 13.767111 35.612444 29.411556 60.871111 46.819555 25.315556 17.351111 51.825778 32.881778 79.303112 46.364445a493.169778 493.169778 0 0 0 96.142222 34.133333 446.293333 446.293333 0 0 0 109.397333 13.767111c36.181333 0 71.395556-3.697778 105.472-10.865777a478.606222 478.606222 0 0 0 86.471111-25.941334c23.438222-9.898667 45.056-20.992 64.853334-32.995555 19.797333-11.946667 34.360889-22.186667 43.861333-30.264889 9.500444-8.248889 16.327111-14.620444 20.252444-19.399111 4.551111-5.688889 6.826667-10.638222 6.826667-14.904889 0.170667-4.551111-1.649778-7.111111-4.949333-7.964445zM527.416889 348.103111a531.114667 531.114667 0 0 0-55.011556 8.305778 469.105778 469.105778 0 0 0-59.790222 15.36 318.634667 318.634667 0 0 0-56.32 25.429333c-19.171556 10.808889-35.498667 23.210667-48.981333 36.977778-13.539556 13.824-24.462222 31.118222-33.109334 51.996444a178.062222 178.062222 0 0 0-12.913777 68.721778c0 27.079111 4.721778 51.2 14.336 72.533334 9.500444 21.276444 22.186667 37.944889 38.172444 50.346666 15.928889 12.401778 34.019556 22.129778 54.044445 29.240889 19.911111 7.111111 41.130667 10.24 63.146666 9.386667a273.123556 273.123556 0 0 0 64.398222-10.296889c20.821333-5.916444 40.391111-15.36 58.595556-28.330667 18.204444-12.856889 33.109333-28.16 44.828444-45.681778 4.266667 6.599111 8.078222 11.491556 11.491556 14.734223l8.704 8.874666c5.802667 5.916444 14.677333 14.620444 26.737778 26.112 11.832889 11.491556 24.064 22.698667 36.238222 33.678223l104.391111-99.896889-5.973333-4.892445a124.074667 124.074667 0 0 1-15.189334-14.279111 258.275556 258.275556 0 0 1-17.237333-20.48c-5.688889-7.395556-10.581333-16.156444-14.677333-25.941333a73.728 73.728 0 0 1-6.200889-28.501334v-262.826666c0-10.069333-1.877333-20.992-5.688889-32.768a144.497778 144.497778 0 0 0-20.707556-38.286222 167.480889 167.480889 0 0 0-37.205333-36.977778c-14.904889-10.808889-34.702222-20.024889-59.619555-27.420445a290.872889 290.872889 0 0 0-83.171556-11.093333c-31.288889 0-60.416 3.697778-87.608889 10.865778a254.748444 254.748444 0 0 0-69.688889 29.184c-19.342222 12.231111-35.896889 26.339556-49.720889 42.439111a172.373333 172.373333 0 0 0-30.776889 50.403555 147.512889 147.512889 0 0 0-10.126222 53.077334l135.224889 11.946666c5.518222-16.497778 12.913778-30.663111 22.016-42.837333 9.159111-12.231111 17.863111-21.048889 25.770667-26.510222 7.964444-5.518222 16.611556-9.898667 25.713778-13.198222 9.216-3.299556 15.36-5.006222 18.602666-5.404445 3.185778-0.284444 5.688889-0.398222 7.566222-0.398222 26.737778 0 45.226667 7.907556 55.637334 23.608889 6.485333 9.500444 9.671111 23.893333 9.671111 43.292444v56.604445c-15.189333 0.568889-30.378667 1.592889-45.568 2.844444z m45.681778 151.893333c0 16.611556-2.218667 31.687111-6.485334 44.999112-9.216 29.127111-26.737778 47.388444-52.394666 54.784a74.069333 74.069333 0 0 1-63.943111-9.784889A66.844444 66.844444 0 0 1 418.133333 530.773333c0-19.911111 5.006222-36.920889 15.018667-51.143111 10.012444-14.051556 23.324444-24.689778 39.992889-31.687111 16.725333-6.997333 32.995556-11.946667 49.038222-14.904889 15.872-2.958222 32.995556-4.778667 50.972445-5.404444V500.053333z m335.189333 218.908445c-4.266667-5.404444-15.928889-8.931556-34.872889-10.695111a208.782222 208.782222 0 0 0-49.720889 0.398222 163.441778 163.441778 0 0 0-47.274666 13.368889c-16.327111 7.111111-23.438222 13.084444-21.617778 17.806222l0.682666 1.308445 0.910223 0.682666 1.422222 0.227556h4.551111c0.853333 0 1.820444-0.113778 3.242667-0.227556 1.365333-0.056889 2.673778-0.284444 3.868444-0.398222 1.194667-0.056889 2.901333-0.284444 5.12-0.398222a54.840889 54.840889 0 0 0 5.973333-0.682667l10.353778-0.910222c6.599111-0.568889 11.377778-0.967111 14.222222-1.308445a287.459556 287.459556 0 0 1 30.663112-0.853333l13.596444 1.080889c5.12 0.398222 9.216 1.308444 12.401778 2.673778a15.758222 15.758222 0 0 1 7.111111 5.12c5.176889 6.599111 4.152889 21.219556-3.015111 43.918222a436.849778 436.849778 0 0 1-20.423111 54.158222c-2.787556 5.688889-2.787556 9.216 0 10.752 2.844444 1.479111 6.712889 0.056889 11.946666-3.982222 15.587556-12.231111 28.558222-30.663111 39.082667-55.352889a203.093333 203.093333 0 0 0 13.084444-45.681778c2.389333-15.928889 1.991111-26.168889-1.308444-31.004444z"  /></svg>