<?xml version="1.0" standalone="no"?><!DOCTYPE svg PUBLIC "-//W3C//DTD SVG 1.1//EN" "http://www.w3.org/Graphics/SVG/1.1/DTD/svg11.dtd"><svg class="icon" width="200px" height="200.00px" viewBox="0 0 1024 1024" version="1.1" xmlns="http://www.w3.org/2000/svg"><path fill="#1296db" d="M517.504 85.333333l5.504 0.170667 5.461333 0.170667 5.461334 0.213333 5.461333 0.341333 5.418667 0.384 5.418666 0.426667 5.376 0.512 5.376 0.597333 5.333334 0.64 5.333333 0.725334 5.290667 0.768 5.290666 0.810666 5.248 0.938667 5.248 0.938667 5.205334 1.066666 5.205333 1.066667 5.162667 1.194667 5.162666 1.194666 5.12 1.28 5.077334 1.365334 5.077333 1.408 5.077333 1.450666 4.992 1.536 4.992 1.621334 4.992 1.621333 4.949334 1.706667 4.906666 1.792 4.864 1.792 4.864 1.92 4.821334 1.92 4.821333 2.005333 4.778667 2.048 4.736 2.090667 4.693333 2.133333 4.693333 2.261333 4.650667 2.261334 4.608 2.346666 4.565333 2.389334 4.565334 2.432 4.522666 2.474666 4.48 2.56 4.437334 2.56 4.437333 2.688 4.352 2.688 4.352 2.773334 4.309333 2.773333 4.266667 2.858667 4.266667 2.901333 4.181333 2.944 4.181333 2.986667 4.138667 3.072 4.053333 3.114666 4.053334 3.114667 4.010666 3.2 3.968 3.242667 3.968 3.285333 3.882667 3.328 3.84 3.370667 3.797333 3.413333 3.797334 3.498667 3.712 3.498666 3.669333 3.541334 3.669333 3.626666 3.584 3.626667 3.541334 3.669333 3.541333 3.754667 3.456 3.754667 3.413333 3.797333 3.370667 3.84 3.328 3.925333 3.285333 3.925334 3.242667 3.968 3.2 4.010666 3.157333 4.053334 3.072 4.096 3.072 4.138666 2.986667 4.138667 2.944 4.224 2.901333 4.224 2.858667 4.266667 2.816 4.266666 2.730667 4.394667 2.688 4.394667 2.645333 4.394666 2.602667 4.437334 2.56 4.522666 2.474666 4.48 2.432 4.565334 2.389334 4.608 2.346666 4.608 2.261334 4.650666 2.218666 4.650667 2.176 4.693333 2.133334 4.778667 2.048 4.778667 1.962666 4.778666 1.962667 4.821334 1.877333 4.864 1.834667 4.906666 1.749333 4.906667 1.706667 4.949333 1.664 4.949334 1.578667 4.992 1.536 5.034666 1.450666 5.034667 1.408 5.077333 1.365334 5.077334 1.28 5.12 1.237333 5.12 1.152 5.205333 1.109333 5.205333 1.024 5.205334 0.981334 5.248 0.896 5.290666 0.853333 5.248 0.768 5.333334 0.725333 5.333333 0.64 5.333333 0.554667 5.376 0.512 5.376 0.469333 5.376 0.384 5.461334 0.298667 5.418666 0.256 5.461334 0.170667 5.461333 0.085333 5.504L938.666667 512l-0.042667 5.546667-0.085333 5.461333-0.170667 5.504-0.256 5.461333-0.298667 5.418667-0.384 5.418667-0.469333 5.418666-0.512 5.376-0.554667 5.376-0.64 5.333334-0.725333 5.333333-0.768 5.290667-0.853333 5.290666-0.896 5.290667-0.981334 5.205333-1.024 5.248-1.109333 5.12-1.152 5.248-1.237333 5.12-1.28 5.12-1.365334 5.12-1.408 5.077334-1.450666 5.034666-1.536 5.034667-1.578667 4.992-1.664 4.949333-1.706667 4.949334-1.749333 4.906666-1.834667 4.906667-1.877333 4.864-1.962667 4.821333-1.962666 4.778667-2.048 4.778667-2.133334 4.693333-2.176 4.778667-2.218666 4.650666-2.261334 4.650667-2.346666 4.608-2.389334 4.608-2.432 4.522667-2.474666 4.522666-2.56 4.48-2.602667 4.48-2.645333 4.394667-2.688 4.394667-2.730667 4.352-2.816 4.266666-2.858667 4.266667-2.901333 4.266667-2.944 4.224-2.986667 4.138666-3.072 4.138667-3.072 4.096-3.157333 4.053333-3.2 4.010667-3.242667 3.968-3.285333 3.925333-3.328 3.84-3.370667 3.84-3.413333 3.84-3.456 3.797334-3.541333 3.712-3.541334 3.712-3.584 3.626666-3.669333 3.584-3.669333 3.584-3.712 3.498667-3.797334 3.413333-3.797333 3.413334-3.84 3.413333-3.882667 3.370667-3.968 3.285333-3.968 3.242667-4.010666 3.157333-4.053334 3.157333-4.053333 3.114667-4.138667 2.986667-4.181333 2.986666-4.181333 2.986667-4.266667 2.944-4.266667 2.816-4.309333 2.816-4.352 2.773333-4.352 2.688-4.437333 2.645334-4.437334 2.56-4.48 2.56-4.522666 2.517333-4.565334 2.432-4.565333 2.389333-4.608 2.304-4.650667 2.304-4.693333 2.218667-4.693333 2.133333-4.736 2.133334-4.778667 2.048-4.821333 2.005333-4.821334 1.92-4.864 1.877333-4.864 1.834667-4.906666 1.792-4.949334 1.706667-4.992 1.621333-4.992 1.621333-4.992 1.493334-5.077333 1.493333-5.077333 1.408-5.077334 1.28-5.12 1.28-5.162666 1.28-5.162667 1.152-5.205333 1.109333-5.205334 1.024-5.248 0.981334-5.248 0.853333-5.290666 0.853333-5.290667 0.810667-5.333333 0.725333-5.333334 0.64-5.376 0.597334-5.376 0.512-5.418666 0.426666-5.418667 0.384-5.461333 0.298667-5.461334 0.256-5.461333 0.170667-5.504 0.128h-11.008l-5.504-0.128-5.461333-0.170667-5.461334-0.256-5.461333-0.298667-5.418667-0.426666-5.418666-0.426667-5.376-0.469333-5.376-0.597334-5.333334-0.64-5.333333-0.725333-5.290667-0.768-5.290666-0.853333-5.248-0.896-5.248-0.981334-5.205334-1.024-5.205333-1.109333-5.162667-1.152-5.162666-1.28-5.12-1.28-5.077334-1.28-5.077333-1.408-5.077333-1.493333-4.992-1.493334-4.992-1.621333-4.992-1.621333-4.949334-1.706667-4.906666-1.792-4.864-1.834667-4.864-1.877333-4.821334-1.92-4.821333-2.005333-4.778667-2.048-4.736-2.133334-4.693333-2.133333-4.693333-2.218667-4.650667-2.304-4.608-2.304-4.565333-2.389333-4.565334-2.432-4.522666-2.56-4.48-2.474667-4.437334-2.602666-4.437333-2.645334-4.352-2.688-4.352-2.773333-4.309333-2.816-4.266667-2.816-4.266667-2.901333-4.181333-2.986667-4.181333-2.986667-4.138667-3.029333-4.053333-3.114667-4.053334-3.157333-4.010666-3.157333-3.968-3.242667-3.968-3.285333-3.882667-3.328-3.84-3.413334-3.797333-3.413333-3.797334-3.456-3.712-3.498667-3.669333-3.584-3.669333-3.584-3.584-3.626666-3.541334-3.712-3.541333-3.712-3.456-3.754667-3.413333-3.84-3.370667-3.84-3.328-3.882667-3.285333-3.925333-3.242667-3.968-3.2-4.010667-3.157333-4.053333-3.072-4.096-3.072-4.138667-2.986667-4.138666-2.944-4.266667-2.901333-4.181333-2.858667-4.266667-2.816-4.309333-2.730667-4.352-2.688-4.394667-2.645333-4.394667-2.602667-4.48-2.56-4.48-2.474666-4.522666-2.432-4.522667-2.389334-4.608-2.346666-4.608-2.261334-4.693333-2.218666-4.608-2.176-4.736-2.133334-4.736-2.048-4.778667-1.962666-4.778667-1.962667-4.821333-1.877333-4.864-1.834667-4.906667-1.749333-4.906666-1.706667-4.949334-1.664-4.949333-1.578667-4.992-1.536-5.034667-1.450666-5.034666-1.408-5.12-1.365334-5.12-1.28-5.12-1.237333-5.12-1.152-5.162667-1.109333-5.162667-1.024-5.248-0.981334-5.205333-0.896-5.290667-0.853333-5.290666-0.768-5.290667-0.725333-5.333333-0.64-5.333334-0.554667-5.376-0.512-5.376-0.469333-5.418666-0.384-5.418667-0.298667-5.418667-0.256-5.461333-0.170667-5.546667-0.085333-5.418666L85.333333 512l0.042667-5.546667 0.085333-5.461333 0.170667-5.461333 0.256-5.461334 0.298667-5.418666 0.384-5.461334 0.469333-5.376 0.512-5.376 0.554667-5.376 0.64-5.333333 0.725333-5.333333 0.768-5.333334 0.853333-5.248 0.896-5.290666 0.981334-5.248 1.024-5.205334 1.109333-5.205333 1.152-5.162667 1.237333-5.12 1.28-5.162666 1.365334-5.12 1.408-5.034667 1.450666-5.034667 1.536-5.034666 1.578667-4.992 1.664-4.949334 1.706667-4.949333 1.749333-4.906667 1.834667-4.906666 1.877333-4.864 1.962667-4.821334 1.962666-4.778666 2.048-4.778667 2.133334-4.736 2.176-4.736 2.218666-4.693333 2.261334-4.608 2.346666-4.608 2.389334-4.608 2.432-4.565334 2.474666-4.48 2.56-4.522666 2.602667-4.437334 2.645333-4.394666 2.688-4.394667 2.730667-4.352 2.816-4.309333 2.858667-4.266667 2.901333-4.266667 2.944-4.181333 2.986667-4.138667 3.072-4.138666 3.072-4.096 3.157333-4.053334 3.2-4.010666 3.242667-3.968 3.285333-3.925334 3.328-3.882666 3.370667-3.882667 3.413333-3.84 3.456-3.712 3.541333-3.754667 3.541334-3.669333 3.584-3.626667 3.669333-3.626666 3.669333-3.541334 3.712-3.498666 3.797334-3.456 3.797333-3.456 3.84-3.413334 3.882667-3.285333 3.968-3.285333 3.968-3.242667 4.010666-3.2 4.053334-3.114667 4.053333-3.114666 4.138667-3.029334 4.181333-3.029333 4.181333-2.986667 4.266667-2.858666 4.266667-2.858667 4.309333-2.773333 4.352-2.773334 4.352-2.688 4.437333-2.645333 4.437334-2.602667 4.48-2.56 4.522666-2.474666 4.565334-2.432 4.565333-2.389334 4.608-2.346666 4.650667-2.261334 4.693333-2.218666 4.693333-2.176 4.736-2.133334 4.778667-2.005333 4.821333-2.005333 4.821334-1.92 4.864-1.92 4.864-1.792 4.906666-1.792 4.949334-1.706667 4.992-1.621333 4.992-1.621334 4.992-1.536 5.077333-1.450666 5.077333-1.408 5.077334-1.365334 5.12-1.28 5.162666-1.194666 5.162667-1.194667 5.205333-1.066667 5.205334-1.066666 5.248-0.938667 5.248-0.938667 5.290666-0.853333 5.290667-0.725333 5.333333-0.725334 5.333334-0.64 5.376-0.597333 5.376-0.512 5.418666-0.426667 5.418667-0.426666 5.461333-0.298667 5.461334-0.213333 5.461333-0.170667 5.504-0.128L512 85.333333h5.504z m-10.453333 42.666667l-4.992 0.128-4.906667 0.170667-4.949333 0.213333-4.864 0.298667-4.906667 0.341333-4.864 0.384-4.864 0.426667-4.821333 0.554666-4.821334 0.597334-4.778666 0.64-4.778667 0.682666-4.736 0.768-4.736 0.810667-4.736 0.853333-4.693333 0.938667-4.650667 1.024-4.650667 1.024-4.650666 1.109333-4.608 1.152-4.565334 1.194667-4.565333 1.28-4.522667 1.28-4.522666 1.408-4.48 1.450667-4.48 1.450666-4.437334 1.536-4.437333 1.621334-4.394667 1.621333-4.352 1.706667-4.352 1.706666-4.309333 1.834667-4.309333 1.834667-4.266667 1.877333-4.224 1.962667-4.181333 2.005333-4.181334 2.048-4.181333 2.090667-4.096 2.133333-4.096 2.218667-4.096 2.218666-4.010667 2.304-4.010666 2.346667-3.968 2.389333-3.968 2.389334-3.882667 2.517333-3.882667 2.517333-3.882666 2.56-3.797334 2.56-3.797333 2.688-3.712 2.730667-3.754667 2.730667-3.669333 2.773333-3.626667 2.858667-3.626666 2.858666-3.584 2.901334-3.541334 2.986666-3.498666 2.986667-3.456 2.986667-3.456 3.157333-3.370667 3.114667-3.370667 3.157333-3.328 3.2-3.285333 3.242667-3.242667 3.285333-3.2 3.328-3.157333 3.328-3.114667 3.413333-3.072 3.413334-3.029333 3.413333-3.029333 3.584-2.944 3.541333-2.901334 3.541334-2.901333 3.626666-2.816 3.669334-2.816 3.669333-2.730667 3.712-2.688 3.754667-2.645333 3.754666-2.645333 3.84-2.56 3.84-2.517334 3.84-2.474666 3.968-2.432 3.925334-2.389334 3.968-2.304 4.010666-2.304 4.053334-2.261333 4.053333-2.176 4.096-2.133333 4.138667-2.090667 4.138666-2.048 4.181334-2.005333 4.224-1.962667 4.224-1.877333 4.266666-1.877334 4.266667-1.792 4.266667-1.749333 4.394666-1.664 4.394667-1.664 4.394667-1.578667 4.394666-1.536 4.437334-1.493333 4.48-1.408 4.48-1.408 4.522666-1.28 4.565334-1.28 4.522666-1.237333 4.608-1.152 4.608-1.066667 4.608-1.066667 4.650667-0.981333 4.693333-0.938667 4.693334-0.853333 4.693333-0.810667 4.693333-0.768 4.821334-0.725333 4.693333-0.64 4.864-0.554667 4.821333-0.512 4.821334-0.469333 4.821333-0.426667 4.864-0.341333 4.906667-0.256 4.906666-0.213333 4.906667-0.170667 4.949333-0.085333 4.949334L128 512l0.042667 4.992 0.085333 4.949333 0.170667 4.949334 0.213333 4.906666 0.256 4.906667 0.341333 4.864 0.426667 4.864 0.469333 4.864 0.512 4.821333 0.554667 4.821334 0.64 4.778666 0.725333 4.778667 0.768 4.778667 0.810667 4.693333 0.853333 4.693333 0.938667 4.693334 0.981333 4.693333 1.066667 4.650667 1.066667 4.650666 1.152 4.608 1.237333 4.565334 1.28 4.565333 1.28 4.565333 1.408 4.48 1.408 4.522667 1.493333 4.437333 1.536 4.48 1.578667 4.394667 1.664 4.394667 1.664 4.394666 1.749333 4.266667 1.792 4.394667 1.877334 4.266666 1.877333 4.266667 1.962667 4.224 2.005333 4.224 2.048 4.181333 2.090667 4.138667 2.133333 4.138667 2.176 4.096 2.261333 4.053333 2.304 4.053333 2.304 4.010667 2.389334 3.968 2.432 3.925333 2.474666 3.925334 2.517334 3.84 2.56 3.84 2.645333 3.84 2.645333 3.797333 2.688 3.754667 2.730667 3.712 2.816 3.669333 2.816 3.669333 2.901333 3.584 2.901334 3.584 2.944 3.541334 3.029333 3.498666 3.029333 3.498667 3.072 3.413333 3.114667 3.413334 3.157333 3.328 3.2 3.328 3.242667 3.285333 3.285333 3.242667 3.328 3.2 3.370667 3.157333 3.370667 3.114667 3.456 3.114666 3.456 2.986667 3.498666 2.986667 3.541334 2.986666 3.584 2.944 3.626666 2.858667 3.626667 2.858667 3.669333 2.773333 3.754667 2.730667 3.712 2.730666 3.797333 2.645334 3.797334 2.56 3.882666 2.56 3.882667 2.56 3.882667 2.474666 3.968 2.432 3.968 2.389334 4.010666 2.346666 4.010667 2.304 4.096 2.218667 4.096 2.218667 4.096 2.133333 4.181333 2.090667 4.181334 2.048 4.181333 2.005333 4.224 1.92 4.266667 1.92 4.309333 1.834667 4.309333 1.792 4.352 1.706666 4.352 1.706667 4.394667 1.664 4.437333 1.578667 4.437334 1.536 4.48 1.493333 4.48 1.450667 4.522666 1.365333 4.522667 1.28 4.565333 1.28 4.565334 1.237333 4.608 1.152 4.650666 1.109334 4.650667 1.024 4.650667 0.981333 4.693333 0.938667 4.736 0.853333 4.736 0.853333 4.736 0.768 4.778667 0.682667 4.778666 0.64 4.821334 0.597333 4.821333 0.512 4.864 0.426667 4.864 0.426667 4.906667 0.341333 4.864 0.298667 4.949333 0.213333 4.906667 0.128 4.992 0.128h9.898666l4.992-0.128 4.906667-0.128 4.949333-0.213333 4.864-0.298667 4.906667-0.341333 4.864-0.426667 4.864-0.426667 4.821333-0.512 4.821334-0.597333 4.778666-0.64 4.778667-0.682667 4.736-0.768 4.736-0.853333 4.736-0.853333 4.693333-0.938667 4.650667-0.981333 4.650667-1.024 4.650666-1.109334 4.608-1.152 4.565334-1.194666 4.565333-1.28 4.522667-1.322667 4.522666-1.365333 4.48-1.450667 4.48-1.493333 4.437334-1.536 4.437333-1.578667 4.394667-1.621333 4.352-1.706667 4.352-1.749333 4.309333-1.792 4.309333-1.834667 4.266667-1.92 4.224-1.92 4.181333-2.005333 4.181334-2.048 4.181333-2.133334 4.096-2.133333 4.096-2.176 4.096-2.218667 4.010667-2.304 4.010666-2.346666 3.968-2.389334 3.968-2.432 3.882667-2.474666 3.882667-2.56 3.882666-2.56 3.797334-2.56 3.797333-2.645334 3.712-2.730666 3.754667-2.730667 3.669333-2.773333 3.626667-2.858667 3.626666-2.858667 3.584-2.986666 3.541334-2.901334 3.498666-2.986666 3.456-3.029334 3.456-3.114666 3.370667-3.114667 3.370667-3.157333 3.328-3.2 3.285333-3.242667 3.242667-3.285333 3.2-3.328 3.157333-3.328 3.114667-3.413334 3.072-3.413333 3.029333-3.498667 3.029333-3.498666 2.944-3.541334 2.901334-3.584 2.901333-3.584 2.816-3.669333 2.816-3.669333 2.730667-3.712 2.688-3.754667 2.645333-3.84 2.645333-3.754667 2.56-3.84 2.517334-3.882666 2.474666-3.925334 2.432-3.925333 2.389334-3.968 2.304-4.010667 2.304-4.053333 2.261333-4.053333 2.176-4.096 2.133333-4.138667 2.090667-4.138667 2.048-4.181333 2.005333-4.266667 1.962667-4.181333 1.877333-4.266667 1.877334-4.266666 1.792-4.352 1.749333-4.309334 1.664-4.394666 1.664-4.394667 1.578667-4.394667 1.536-4.48 1.493333-4.437333 1.408-4.522667 1.408-4.48 1.28-4.565333 1.28-4.565333 1.237333-4.565334 1.152-4.608 1.066667-4.693333 1.066667-4.608 0.981333-4.693333 0.938667-4.693334 0.853333-4.693333 0.810667-4.693333 0.768-4.778667 0.725333-4.778667 0.64-4.778666 0.554667-4.821334 0.512-4.821333 0.469333-4.864 0.426667-4.864 0.341333-4.864 0.256-4.906667 0.213333-4.906666 0.170667-4.949334 0.085333-4.949333L896 512l-0.042667-4.949333-0.085333-4.949334-0.170667-4.949333-0.213333-4.906667-0.256-4.906666-0.341333-4.906667-0.426667-4.864-0.469333-4.821333-0.512-4.821334-0.554667-4.821333-0.64-4.821333-0.725333-4.736-0.768-4.778667-0.810667-4.736-0.853333-4.693333-0.938667-4.693334-0.981333-4.693333-1.066667-4.693333-1.066667-4.565334-1.152-4.608-1.237333-4.608-1.28-4.522666-1.28-4.565334-1.408-4.522666-1.408-4.48-1.493333-4.48-1.536-4.437334-1.578667-4.394666-1.664-4.394667-1.664-4.394667-1.749333-4.352-1.792-4.309333-1.877334-4.266667-1.877333-4.266666-1.962667-4.266667-2.005333-4.181333-2.048-4.181334-2.090667-4.138666-2.133333-4.138667-2.176-4.096-2.261333-4.053333-2.304-4.053334-2.304-4.010666-2.389334-3.968-2.432-3.925334-2.474666-3.925333-2.517334-3.882667-2.56-3.84-2.645333-3.84-2.645333-3.754666-2.688-3.754667-2.730667-3.712-2.816-3.669333-2.816-3.669334-2.901333-3.626666-2.901334-3.541334-2.944-3.541333-3.029333-3.541333-3.029333-3.456-3.072-3.413334-3.114667-3.413333-3.157333-3.328-3.2-3.328-3.242667-3.285333-3.285333-3.242667-3.328-3.2-3.370667-3.157333-3.370667-3.114667-3.456-3.114667-3.456-3.029333-3.498666-2.986667-3.541334-2.986666-3.584-2.901334-3.626666-2.858666-3.626667-2.858667-3.669333-2.773333-3.754667-2.730667-3.712-2.730667-3.797333-2.645333-3.797334-2.602667-3.882666-2.56-3.882667-2.56-3.882667-2.474666-3.968-2.389334-3.968-2.389333-4.010666-2.346667-4.010667-2.304-4.096-2.218666-4.096-2.218667-4.096-2.133333-4.181333-2.133334-4.181334-2.005333-4.181333-2.005333-4.224-1.962667-4.266667-1.877333-4.309333-1.834667-4.309333-1.792-4.352-1.749333-4.352-1.706667-4.394667-1.621333-4.437333-1.621334-4.437334-1.536-4.48-1.450666-4.48-1.450667-4.522666-1.365333-4.522667-1.322667-4.565333-1.28-4.565334-1.194667-4.608-1.152-4.650666-1.109333-4.650667-1.024-4.650667-1.024-4.693333-0.896-4.736-0.896-4.736-0.853333-4.736-0.725334-4.778667-0.682666-4.778666-0.64-4.821334-0.597334-4.821333-0.512-4.864-0.469333-4.864-0.426667-4.906667-0.298666-4.864-0.298667-4.949333-0.213333-4.906667-0.170667L516.949333 128 512 128h-4.949333z"  /><path fill="#1296db" d="M516.608 234.709333l4.949333 0.213334 4.864 0.298666 4.864 0.426667 4.864 0.554667 4.778667 0.682666 4.736 0.768 4.736 0.896 4.693333 1.024 4.608 1.152 4.608 1.28 4.522667 1.322667 4.522667 1.450667 4.437333 1.578666 4.394667 1.706667 4.352 1.706667 4.266666 1.877333 4.266667 2.005333 4.181333 2.048 4.096 2.176 4.053334 2.261334 4.010666 2.389333 3.925334 2.432 3.882666 2.56 3.797334 2.645333 3.754666 2.730667 3.626667 2.816 3.626667 2.858667 3.498666 2.986666 3.456 3.072 3.370667 3.157334 3.328 3.2 3.2 3.328 3.157333 3.413333 3.072 3.413333 2.944 3.498667 2.901334 3.584 2.816 3.669333 2.730666 3.754667 2.645334 3.84 2.56 3.84 2.432 3.925333 2.346666 4.010667 2.304 4.053333 2.176 4.096 2.048 4.181334 2.005334 4.266666 1.877333 4.266667 1.749333 4.352 1.664 4.394667 1.578667 4.437333 1.450667 4.522667 1.365333 4.522666 1.237333 4.608 1.152 4.608 0.981334 4.693334 0.938666 4.693333 0.768 4.778667 0.682667 4.778666 0.554667 4.864 0.426666 4.864 0.298667 4.864 0.213333 4.949334 0.042667 4.821333v0.426667l-0.042667 4.608-0.170666 4.736-0.298667 4.736-0.426667 4.693333-0.512 4.693333-0.64 4.693334-0.768 4.608-0.853333 4.693333-0.981333 4.522667-1.066667 4.565333-1.194667 4.522667-1.322666 4.48-1.408 4.48-1.536 4.394666-1.621334 4.394667-1.749333 4.309333-1.834667 4.309334-1.92 4.266666-2.048 4.181334-2.176 4.138666-2.218666 4.096-2.389334 4.053334-2.432 4.010666-2.56 3.925334-2.645333 3.882666-2.773333 3.84-2.816 3.712-2.944 3.669334-3.072 3.626666-3.114667 3.541334-3.242667 3.498666-3.285333 3.413334-3.413333 3.285333-3.498667 3.242667-3.541333 3.114666-3.626667 3.029334-3.669333 2.986666-3.754667 2.816-3.797333 2.773334-3.882667 2.645333-3.925333 2.56-4.010667 2.432-4.053333 2.346667-4.096 2.261333-4.138667 2.176-4.181333 2.048-4.266667 1.92-4.266667 1.834667-4.352 1.749333-4.394666 1.621333-4.394667 1.536-4.48 1.408-4.48 1.322667-4.522667 1.194667-4.565333 1.066666-4.565333 0.981334-4.608 0.853333-4.650667 0.768-4.693333 0.64-2.773334 0.298667V725.333333l-0.085333 1.962667-0.298667 1.962667-0.426666 1.92-0.64 1.834666-0.768 1.834667-0.981334 1.706667-1.109333 1.621333-1.237333 1.536-1.408 1.365333-1.536 1.28-1.621334 1.109334-1.706666 0.938666-1.792 0.853334-1.877334 0.597333-1.92 0.426667-1.962666 0.298666L512 746.666667l-1.962667-0.085334-1.962666-0.298666-1.92-0.426667-1.877334-0.64-1.792-0.810667-1.706666-0.938666-1.621334-1.109334-1.536-1.28-1.408-1.365333-1.237333-1.536-1.109333-1.621333-0.981334-1.706667-0.768-1.834667-0.64-1.834666-0.426666-1.92-0.298667-1.962667L490.666667 725.333333v-149.333333h25.557333l3.669333-0.170667 3.669334-0.256 3.669333-0.298666 3.626667-0.426667 3.626666-0.426667 3.626667-0.64 3.584-0.682666 3.541333-0.768 3.541334-0.810667 3.541333-0.938667 3.456-1.024 3.498667-1.109333 3.413333-1.152 3.413333-1.28 3.370667-1.365333 3.328-1.408 3.285333-1.536 3.285334-1.578667 3.2-1.664 3.2-1.706667 3.157333-1.877333 3.072-1.92 3.072-1.962667 3.029333-2.090666 2.944-2.133334 2.901334-2.133333 2.901333-2.346667 2.773333-2.346666 2.773334-2.432 2.688-2.517334 2.645333-2.56 2.602667-2.688 2.517333-2.688 2.432-2.773333 2.346667-2.816 2.304-2.858667 2.218666-2.901333 2.133334-2.944 2.048-2.986667 1.962666-3.114666 1.92-3.072 1.834667-3.157334 1.749333-3.2 1.664-3.2 1.621334-3.285333 1.493333-3.285333 1.408-3.328 1.365333-3.370667 1.28-3.413333 1.152-3.413334 1.109334-3.498666 1.024-3.498667 0.938666-3.498667 0.853334-3.541333 0.725333-3.584 0.682667-3.584 0.597333-3.584 0.469333-3.626667 0.426667-3.626666 0.298667-3.669334 0.256-3.669333 0.128-3.712 0.042666-3.754667-0.042666-3.968-0.170667-3.84-0.213333-3.84-0.341334-3.754666-0.426666-3.797334-0.512-3.712-0.64-3.712-0.682667-3.669333-0.810667-3.626667-0.853333-3.584-0.981333-3.584-1.066667-3.498666-1.109333-3.498667-1.237334-3.413333-1.28-3.413334-1.408-3.413333-1.450666-3.370667-1.536-3.285333-1.621334-3.242667-1.664-3.2-1.792-3.157333-1.834666-3.114667-1.877334-3.072-2.005333-2.986666-2.048-2.986667-2.133333-2.901333-2.176-2.858667-2.261334-2.773333-2.304-2.773334-2.389333-2.688-2.474667-2.56-2.474666-2.645333-2.602667-2.474667-2.602667-2.474666-2.688-2.389334-2.773333-2.304-2.773333-2.261333-2.858667-2.133333-2.944-2.133334-2.944-2.090666-3.029333-2.005334-3.029334-1.92-3.114666-1.834666-3.157334-1.706667-3.2-1.706667-3.242666-1.621333-3.328-1.536-3.328-1.493333-3.370667-1.365334-3.413333-1.28-3.456-1.237333-3.498667-1.109333-3.498667-1.066667-3.584-0.981333-3.584-0.853334-3.626666-0.810666-3.669334-0.682667-3.712-0.64-3.754666-0.512-3.754667-0.426667-3.797333-0.341333-3.797334-0.256-3.84-0.128H507.733333l-3.84 0.128-3.797333 0.256-3.754667 0.341333-3.754666 0.426667-3.712 0.512-3.669334 0.597333-3.669333 0.725334-3.626667 0.768-3.584 0.896-3.541333 0.938666-3.498667 1.066667-3.456 1.109333-3.456 1.28-3.413333 1.28-3.328 1.322667-3.328 1.450667-3.285333 1.536-3.242667 1.578666-3.157333 1.706667-3.157334 1.749333-3.072 1.834667-3.072 1.877333-2.986666 2.005334-2.944 2.048-2.901334 2.133333-2.816 2.133333-2.816 2.261334-2.730666 2.304-2.645334 2.346666-2.645333 2.474667-2.56 2.474667-2.474667 2.56-2.432 2.602666-2.389333 2.688-2.304 2.730667-2.261333 2.773333-2.176 2.858667-2.090667 2.901333-2.048 2.986667-1.962667 2.986667-1.92 3.029333-1.834666 3.072-1.749334 3.157333-1.664 3.157334-1.621333 3.242666-1.536 3.285334-1.450667 3.328-1.365333 3.328-1.28 3.413333-1.237333 3.413333-1.109334 3.498667-1.066666 3.498667-0.938667 3.541333-0.896 3.584-0.768 3.626667-0.682667 3.626666-0.64 3.712-0.512 3.712-0.426666 3.712-0.341334 3.84-0.213333 3.754667-0.170667 3.84-0.042666 3.968V426.666667l-0.085334 1.962666-0.298666 1.962667-0.426667 1.92-0.64 1.834667-0.768 1.834666-0.981333 1.706667-1.109334 1.621333-1.237333 1.536-1.408 1.365334-1.536 1.28-1.621333 1.109333-1.706667 0.938667-1.792 0.853333-1.877333 0.597333-1.92 0.426667-1.962667 0.298667L341.333333 448l-1.962666-0.085333-1.962667-0.298667-1.92-0.426667-1.877333-0.64-1.792-0.810666-1.706667-0.938667-1.621333-1.109333-1.536-1.28-1.408-1.365334-1.237334-1.536-1.109333-1.621333-0.981333-1.706667-0.768-1.834666-0.64-1.834667-0.426667-1.92-0.298667-1.962667L320 426.666667v-0.554667l0.042667-4.821333 0.213333-4.906667 0.298667-4.864 0.426666-4.864 0.554667-4.778667 0.682667-4.778666 0.768-4.693334 0.896-4.778666 1.024-4.650667 1.109333-4.608 1.237333-4.565333 1.365334-4.522667 1.450666-4.48 1.578667-4.437333 1.664-4.394667 1.749333-4.266667 1.877334-4.266666 1.962666-4.266667 2.048-4.181333 2.176-4.096 2.261334-4.010667 2.346666-4.010667 2.474667-3.925333 2.517333-3.84 2.645334-3.797333 2.688-3.712 2.816-3.626667 2.858666-3.584 2.986667-3.541333 3.029333-3.413334 3.157334-3.370666 3.2-3.285334 3.285333-3.2 3.370667-3.157333 3.413333-2.986667 3.541333-2.986666 3.584-2.901334 3.626667-2.816 3.712-2.730666 3.797333-2.56 3.882667-2.56 3.882667-2.474667 4.010666-2.346667 4.010667-2.261333 4.138667-2.133333 4.138666-2.090667 4.224-1.962667 4.266667-1.877333 4.352-1.792 4.352-1.664 4.437333-1.536 4.48-1.450667 4.522667-1.365333 4.565333-1.237333 4.608-1.109334 4.693334-1.024 4.693333-0.853333 4.736-0.810667 4.778667-0.682666 4.821333-0.554667 4.821333-0.426667 4.864-0.298666 4.906667-0.213334H516.608zM513.109333 768.042667l1.066667 0.042666 1.066667 0.170667 1.066666 0.170667 1.024 0.256 1.024 0.256 0.981334 0.341333 0.981333 0.426667 0.938667 0.426666 0.896 0.426667 0.896 0.512 0.853333 0.554667 0.853333 0.597333 0.810667 0.64 0.768 0.682667 0.725333 0.682666 0.725334 0.768 0.682666 0.768 0.64 0.853334 0.597334 0.768 0.554666 0.896 0.512 0.896 0.469334 0.896 0.426666 0.938666 0.384 0.981334 0.341334 0.981333 0.256 1.024 0.256 1.024 0.170666 1.066667 0.128 1.066666 0.085334 1.066667 0.042666 1.109333-0.042666 1.109334-0.085334 1.066666-0.128 1.066667-0.170666 1.066667-0.256 1.024-0.256 0.981333-0.341334 1.024-0.384 0.938667-0.426666 0.981333-0.469334 0.896-0.512 0.896-0.554666 0.853333-0.597334 0.853334-0.64 0.853333-0.682666 0.725333-0.725334 0.725334-0.725333 0.725333-0.768 0.682667-0.810667 0.597333-0.853333 0.597333-0.853333 0.554667-0.896 0.512-0.896 0.512-0.938667 0.426667-0.981333 0.426666-0.981334 0.256-1.024 0.298667-1.024 0.256-1.066666 0.170667-1.066667 0.128-1.066667 0.085333L512 810.666667h-1.109333l-1.066667-0.128-1.066667-0.128-1.066666-0.170667-1.024-0.256-1.024-0.298667-0.981334-0.298666-0.981333-0.384-0.938667-0.426667-0.896-0.512-0.896-0.512-0.853333-0.554667-0.853333-0.597333-0.810667-0.597333-0.768-0.682667-0.725333-0.725333-0.725334-0.725334-0.682666-0.768-0.64-0.810666-0.597334-0.853334-0.554666-0.853333-0.512-0.853333-0.469334-0.938667-0.426666-0.981333-0.384-0.938667-0.341334-1.024-0.256-0.981333-0.256-1.024-0.170666-1.066667-0.128-1.066667-0.085334-1.066666-0.042666-1.109334 0.042666-1.109333 0.085334-1.066667 0.128-1.066666 0.170666-1.066667 0.256-1.024 0.256-1.024 0.341334-0.981333 0.384-0.981334 0.426666-0.938666 0.469334-0.853334 0.512-0.938666 0.554666-0.853334 0.597334-0.853333 0.64-0.810667 0.682666-0.768 0.725334-0.768 0.725333-0.682666 0.768-0.682667 0.810667-0.64 0.853333-0.597333 0.853333-0.554667 0.896-0.512 0.896-0.426667 0.938667-0.426666 0.981333-0.426667 0.981334-0.341333 1.024-0.256 1.024-0.256 1.066666-0.170667 1.066667-0.170667h1.066667L512 768l1.109333 0.042667z m-1.109333 21.333333z"  /></svg>