<?xml version="1.0" standalone="no"?><!DOCTYPE svg PUBLIC "-//W3C//DTD SVG 1.1//EN" "http://www.w3.org/Graphics/SVG/1.1/DTD/svg11.dtd"><svg class="icon" width="200px" height="200.00px" viewBox="0 0 1024 1024" version="1.1" xmlns="http://www.w3.org/2000/svg"><path fill="#1296db" d="M913.358324 333.054024c0-22.015436-6.209482-44.030871-24.273429-60.401323L628.851158 34.434399c-14.112459-14.112459-32.176406-20.32194-52.498346-20.32194L212.815877 14.112459C194.751929 14.676957 180.639471 28.224917 180.639471 46.853363l0 88.061742 66.046307 0L246.685777 79.029768l328.538037 0 274.346196 246.121279 0 52.498346L849.570011 592.723264l0 240.476295-57.578831 0 0 66.046307 92.01323 0c18.063947 0 32.176406-14.112459 32.176406-32.176406L913.358324 333.054024z"  /><path fill="#1296db" d="M781.265711 381.036384 520.467475 142.818082c-14.112459-14.112459-32.176406-20.32194-52.498346-20.32194L103.867696 122.496141c-18.063947 0-32.176406 14.112459-32.176406 32.176406l0 825.296582c0 18.063947 14.112459 29.918412 32.176406 29.918412l670.624035 0c18.063947 0 29.918412-14.112459 29.918412-29.918412l0.564498-539.095921C805.53914 419.422271 799.329658 396.842337 781.265711 381.036384zM605.142227 835.457552 272.652701 835.457552c-7.902977 0-15.805954-6.209482-15.805954-14.112459l0-33.869901c0-6.209482 6.209482-14.112459 15.805954-14.112459l330.231533 0c7.902977 0 15.805954 6.209482 15.805954 14.112459l2.257993 33.869901C620.948181 828.119074 614.738699 835.457552 605.142227 835.457552zM605.142227 725.944873 272.652701 725.944873c-7.902977 0-15.805954-6.209482-15.805954-14.112459l0-33.869901c0-6.209482 6.209482-14.112459 15.805954-14.112459l330.231533 0c7.902977 0 15.805954 6.209482 15.805954 14.112459l2.257993 33.869901C620.948181 717.477398 614.738699 725.944873 605.142227 725.944873zM605.142227 615.867696 272.652701 615.867696c-7.902977 0-15.805954-6.209482-15.805954-14.112459l0-33.869901c0-6.209482 6.209482-14.112459 15.805954-14.112459l330.231533 0c7.902977 0 15.805954 6.209482 15.805954 14.112459l2.257993 33.869901C620.948181 607.400221 614.738699 615.867696 605.142227 615.867696zM519.338479 388.374862 519.338479 213.944873l191.929438 172.171996L519.338479 388.374862z"  /></svg>