<?xml version="1.0" standalone="no"?><!DOCTYPE svg PUBLIC "-//W3C//DTD SVG 1.1//EN" "http://www.w3.org/Graphics/SVG/1.1/DTD/svg11.dtd"><svg class="icon" width="200px" height="200.00px" viewBox="0 0 1024 1024" version="1.1" xmlns="http://www.w3.org/2000/svg"><path fill="#1296db" d="M375.712 636v247.984h-148.8V636h148.8z m-99.2 198.384h49.6V685.6h-49.6v148.784zM586.48 512v371.984h-148.8V512h148.8z m-99.2 322.384h49.6V561.6h-49.6v272.784zM797.264 388v495.984h-148.8V388h148.8z m-99.2 446.384h49.6V437.6h-49.6v396.784z m196.8 173.6H129.296c-54.56 0-99.2-44.64-99.2-99.2V164.816c0-81.84 114.96-148.8 196.8-148.8h545.568a24.784 24.784 0 1 1 0 49.6H226.896c-56.944 0-150.832 48.224-146.976 105.984 3.52 52.672 97.696 92.4 150.48 92.4h542.064a24.8 24.8 0 1 1 0 49.6H226.896c-38.08 0-120.8-14.608-147.2-38.352v633.536a49.6 49.6 0 0 0 49.6 49.6h765.568a49.6 49.6 0 0 0 49.6-49.6V239.2a49.6 49.6 0 0 0-49.6-49.584H235.568c-11.6 0-20.944-8.864-22.432-20.384l-0.064-0.496c-1.984-15.136 9.216-28.72 24.48-28.72h657.312c54.576 0 99.2 44.64 99.2 99.184v669.584c0 54.56-44.64 99.2-99.2 99.2z"  /></svg>