<?xml version="1.0" standalone="no"?><!DOCTYPE svg PUBLIC "-//W3C//DTD SVG 1.1//EN" "http://www.w3.org/Graphics/SVG/1.1/DTD/svg11.dtd"><svg class="icon" width="200px" height="200.00px" viewBox="0 0 1024 1024" version="1.1" xmlns="http://www.w3.org/2000/svg"><path d="M899.691789 980.884211H253.44V140.126316H993.818947v746.657684a94.315789 94.315789 0 0 1-94.127158 94.100211zM319.326316 918.150737h583.545263a29.642105 29.642105 0 0 0 31.366737-31.366737V202.859789H319.326316z" fill="#208BB5" /><path d="M589.096421 980.884211H199.976421a153.977263 153.977263 0 0 1-153.6-153.6v-254.113685a119.161263 119.161263 0 0 1 119.215158-119.215158h119.215158a31.366737 31.366737 0 0 1 0 62.733474H165.591579a56.239158 56.239158 0 0 0-56.589474 56.589474v254.113684a91.055158 91.055158 0 0 0 90.974316 90.974316h389.12a31.366737 31.366737 0 1 1 0 62.733473z" fill="#208BB5" /><path d="M805.564632 413.049263H485.564632a31.366737 31.366737 0 1 1 0-62.733474h320a29.642105 29.642105 0 0 1 31.366736 31.366737 31.447579 31.447579 0 0 1-31.366736 31.366737zM805.564632 591.872H485.564632a31.366737 31.366737 0 1 1 0-62.733474h320a29.642105 29.642105 0 0 1 31.366736 31.366737 31.447579 31.447579 0 0 1-31.366736 31.366737zM676.944842 745.579789h-191.326316a31.366737 31.366737 0 1 1 0-62.733473h191.326316a31.366737 31.366737 0 0 1 0 62.733473z" fill="#83D2EA" /></svg>