<?xml version="1.0" standalone="no"?><!DOCTYPE svg PUBLIC "-//W3C//DTD SVG 1.1//EN" "http://www.w3.org/Graphics/SVG/1.1/DTD/svg11.dtd"><svg class="icon" width="200px" height="200.00px" viewBox="0 0 1024 1024" version="1.1" xmlns="http://www.w3.org/2000/svg"><path d="M324.266667 136.533333a34.133333 34.133333 0 0 1 2.56 68.181334L324.266667 204.8h-119.466667v682.666667h614.4V204.8h-110.933333a34.133333 34.133333 0 0 1-2.56-68.181333L708.266667 136.533333H819.2a68.266667 68.266667 0 0 1 68.181333 64.853334L887.466667 204.8v682.666667a68.266667 68.266667 0 0 1-64.853334 68.181333L819.2 955.733333H204.8a68.266667 68.266667 0 0 1-68.181333-64.853333L136.533333 887.466667V204.8a68.266667 68.266667 0 0 1 64.853334-68.181333L204.8 136.533333h119.466667z" fill="#444444" /><path d="M631.466667 68.266667H392.533333c-56.405333 0-102.4 45.994667-102.4 102.4s45.994667 102.4 102.4 102.4h238.933334c56.405333 0 102.4-45.994667 102.4-102.4s-45.994667-102.4-102.4-102.4zM392.533333 136.533333h238.933334c18.688 0 34.133333 15.445333 34.133333 34.133334s-15.445333 34.133333-34.133333 34.133333H392.533333c-18.688 0-34.133333-15.445333-34.133333-34.133333s15.445333-34.133333 34.133333-34.133334z" fill="#444444" /><path d="M675.601067 419.601067l48.264533 48.264533-221.866667 221.866667a34.133333 34.133333 0 0 1-48.264533 0l-136.533333-136.533334 48.264533-48.264533L477.866667 617.301333l197.7344-197.717333z" fill="#00B386" /></svg>