<?xml version="1.0" standalone="no"?><!DOCTYPE svg PUBLIC "-//W3C//DTD SVG 1.1//EN" "http://www.w3.org/Graphics/SVG/1.1/DTD/svg11.dtd"><svg class="icon" width="200px" height="200.00px" viewBox="0 0 1024 1024" version="1.1" xmlns="http://www.w3.org/2000/svg"><path fill="#1296db" d="M588.8 0s30.72 128 30.72 230.4c0 97.28-66.557992 179.2-163.84 179.2s-174.08-81.92-174.08-179.2v-15.36c-97.28 117.76-153.6 266.24-153.6 424.96C128 849.92 302.08 1024 512 1024s384-174.08 384-384c0-261.12-117.76-491.52-307.2-640zM512 870.4c-87.04 0-153.6-66.56-153.6-148.48 0-76.8 51.2-133.12 133.12-148.48 87.042008-15.357992 174.08-56.32 220.16-122.88 20.48 61.44 30.72 128 30.72 194.56 0 122.88-102.4 225.28-230.4 225.28z" /></svg>