<?xml version="1.0" standalone="no"?><!DOCTYPE svg PUBLIC "-//W3C//DTD SVG 1.1//EN" "http://www.w3.org/Graphics/SVG/1.1/DTD/svg11.dtd"><svg class="icon" width="200px" height="200.00px" viewBox="0 0 1024 1024" version="1.1" xmlns="http://www.w3.org/2000/svg"><path fill="#1296db" d="M152.992 127.344c-14.144 0-25.648 11.472-25.648 25.648v718c0 14.16 11.504 25.648 25.648 25.648h718c14.16 0 25.648-11.488 25.648-25.648V152.992c0-14.176-11.488-25.648-25.648-25.648H152.992z m0-51.296h718a76.96 76.96 0 0 1 76.96 76.944v718a76.928 76.928 0 0 1-76.96 76.944H152.992a76.928 76.928 0 0 1-76.944-76.944V152.992a76.944 76.944 0 0 1 76.944-76.944z"  /><path fill="#1296db" d="M306.864 409.408h410.288v51.312H306.864v-51.312z"  /><path fill="#1296db" d="M405.36 322.24l-108.8 108.8 36.272 36.272 108.8-108.816-36.272-36.256zM692.56 553.024l-108.768 108.784 36.24 36.288 108.832-108.816-36.304-36.256z"  /><path fill="#1296db" d="M306.864 563.248h410.288v51.36H306.864v-51.36z"  /></svg>