<?xml version="1.0" standalone="no"?><!DOCTYPE svg PUBLIC "-//W3C//DTD SVG 1.1//EN" "http://www.w3.org/Graphics/SVG/1.1/DTD/svg11.dtd"><svg class="icon" width="200px" height="200.00px" viewBox="0 0 1024 1024" version="1.1" xmlns="http://www.w3.org/2000/svg"><path fill="#1296db" d="M815.74 412.26c29.72-29.71 46.09-69.22 46.09-111.25s-16.37-81.55-46.09-111.25L712.25 86.26C682.54 56.56 643.02 40.19 601 40.19s-81.55 16.37-111.25 46.08L117.42 458.6 85.11 816.91l358.33-32.32 372.3-372.33zM546.35 142.87c30.13-30.13 79.17-30.13 109.3 0l103.49 103.49c30.13 30.13 30.13 79.17 0 109.3L425.38 689.42 212.6 476.63l333.75-333.76zM188.18 565.42L336.6 713.84l-163.14 14.72 14.72-163.14zM928.96 902.94H95.71c-22.11 0-40.03 17.93-40.03 40.03S73.6 983 95.71 983h833.25c22.11 0 40.03-17.93 40.03-40.03s-17.91-40.03-40.03-40.03z"  /></svg>