<?xml version="1.0" standalone="no"?><!DOCTYPE svg PUBLIC "-//W3C//DTD SVG 1.1//EN" "http://www.w3.org/Graphics/SVG/1.1/DTD/svg11.dtd"><svg class="icon" width="200px" height="200.00px" viewBox="0 0 1024 1024" version="1.1" xmlns="http://www.w3.org/2000/svg"><path fill="#1296db" d="M22.038261 397.423304L966.522435 2.515478c10.24-4.274087 22.038261-2.404174 30.452869 4.85287 8.414609 7.279304 12.02087 18.69913 9.349566 29.495652l-235.275131 944.306087a29.295304 29.295304 0 0 1-47.282087 15.471304L519.501913 825.878261a29.295304 29.295304 0 0 0-39.579826 1.847652l-104.781913 105.071304a29.295304 29.295304 0 0 1-31.922087 6.322087 29.473391 29.473391 0 0 1-18.142609-27.091478v-222.074435c0-7.813565 3.072-15.315478 8.592696-20.858434L759.763478 241.530435 256.712348 620.187826c-10.907826 8.192-25.978435 7.791304-36.418783-0.957217L14.536348 447.22087a29.517913 29.517913 0 0 1 7.479652-49.819827z"  /></svg>