<?xml version="1.0" standalone="no"?><!DOCTYPE svg PUBLIC "-//W3C//DTD SVG 1.1//EN" "http://www.w3.org/Graphics/SVG/1.1/DTD/svg11.dtd"><svg class="icon" width="200px" height="200.00px" viewBox="0 0 1024 1024" version="1.1" xmlns="http://www.w3.org/2000/svg"><path fill="#1296db" d="M748.551404 778.452741H294.18834a25.85039 25.85039 0 0 1-26.101976-26.101976V352.707505a25.85039 25.85039 0 0 1 26.101976-26.101976h454.363064a25.85039 25.85039 0 0 1 26.101976 26.101976v399.64326a25.85039 25.85039 0 0 1-26.101976 26.101976z m-428.323985-52.141055h402.536491V378.872377h-402.536491z"  /><path fill="#1296db" d="M748.425611 378.809481H294.062547a25.158531 25.158531 0 0 1-22.957159-14.088778 26.605146 26.605146 0 0 1 1.572408-27.108316l69.877819-99.627782a26.416457 26.416457 0 0 1 21.384751-10.943961h310.896543a26.416457 26.416457 0 0 1 20.881581 10.440791l73.588702 99.627781a26.416457 26.416457 0 0 1-20.881581 41.763161z m-404.297588-52.141055h352.659704l-34.970358-47.486727h-284.291396z m261.900305 166.926851H418.848859a26.101976 26.101976 0 0 1 0-52.141055h187.305261a26.101976 26.101976 0 0 1 0 52.141055z"  /><path fill="#1296db" d="M142.671089 847.827389a26.730939 26.730939 0 0 1-20.315514-9.371553A503.547992 503.547992 0 0 1 512.312801 16.778224a509.082868 509.082868 0 0 1 245.295674 62.896327 26.164872 26.164872 0 1 1-25.158531 45.914318 458.19974 458.19974 0 0 0-220.137143-56.606694A451.721418 451.721418 0 0 0 60.905864 520.200423a442.035384 442.035384 0 0 0 101.70336 284.857464 25.787494 25.787494 0 0 1-3.647987 36.542766 26.605146 26.605146 0 0 1-16.290148 6.226736z m369.893297 176.109715a503.170614 503.170614 0 0 1-327.060899-120.509362 25.913287 25.913287 0 0 1 33.90112-39.121516 451.155351 451.155351 0 1 0 583.677912-687.897125 25.913287 25.913287 0 1 1 33.39795-39.624686A502.730339 502.730339 0 0 1 511.998319 1023.622622z"  /><path fill="#1296db" d="M751.759117 128.419204a25.787494 25.787494 0 0 1-23.46033-14.591948L691.25285 37.659805a26.101976 26.101976 0 1 1 46.92066-22.95716l37.045936 76.167452a26.101976 26.101976 0 0 1-12.013198 34.970358 30.504718 30.504718 0 0 1-11.447131 2.578749zM244.059967 991.29391a25.787494 25.787494 0 0 1-23.460329-14.591948l-37.737796-77.236689a26.164872 26.164872 0 0 1 46.983556-22.957159l37.737796 77.236689a26.101976 26.101976 0 0 1-12.013199 34.970358 30.504718 30.504718 0 0 1-11.510028 2.578749z"  /></svg>