<?xml version="1.0" standalone="no"?><!DOCTYPE svg PUBLIC "-//W3C//DTD SVG 1.1//EN" "http://www.w3.org/Graphics/SVG/1.1/DTD/svg11.dtd"><svg class="icon" width="200px" height="200.00px" viewBox="0 0 1024 1024" version="1.1" xmlns="http://www.w3.org/2000/svg"><path d="M512.04417598 882.78350485c-49.56945859 0-97.66808437-9.71430434-142.9626411-28.87278993-43.73537196-18.49874698-83.00900008-44.97591174-116.72952836-78.69571655-33.71907987-33.72052827-60.19624464-72.99415639-78.6949916-116.72952834C154.49925352 613.19018983 144.78567266 565.09228825 144.78567266 515.52500224c0-49.56945859 9.71358014-97.66880857 28.87134226-142.96481369 18.49874698-43.73247516 44.97591174-83.00610331 78.6949916-116.72735575 33.72052827-33.71980407 72.9934322-60.19841722 116.72952836-78.69644002 45.29455601-19.15703719 93.39318178-28.86989313 142.9626411-28.86989386 49.5687344 0 97.66591177 9.71285595 142.96046779 28.86989386 43.73682034 18.49874698 83.01044847 44.97663593 116.73097674 78.69644003 33.71907987 33.72052827 60.19552045 72.9948806 78.69426743 116.72735574 19.15848558 45.2960044 28.87278993 93.39535438 28.87279064 142.96481369 0 49.56728601-9.71430434 97.66518758-28.87279064 142.96046779-18.49874698 43.73537196-44.97518755 83.00900008-78.69426743 116.72952834-33.72052827 33.71980407-72.99415639 60.19696884-116.73097673 78.69571656-45.29455601 19.15848558-93.39173338 28.87278993-142.9604678 28.87278992m0-683.51002683c-174.38168829 0-316.25152422 141.86693914-316.25152423 316.25152422 0 174.3809641 141.86983592 316.24862744 316.25152423 316.24862745 174.3809641 0 316.24935163-141.86766334 316.24935091-316.24862745 0-174.38458509-141.86911172-316.25152422-316.24935091-316.25152422" fill="#434690" /><path d="M575.67526041 639.70139184L425.0897798 500.82970814 319.95383322 605.96348286c-11.95133191 11.95278031-31.32924758 11.95278031-43.2820286 0-11.95133191-11.95133191-11.95133191-31.32852337 0-43.28130368l146.70236614-146.70019356 147.64091747 136.15813776 131.73912081-150.35373922c11.13878931-12.7139057 30.47470157-13.98993112 43.18788378-2.85041761 12.7131815 11.13951351 13.98848272 30.47397737 2.85041762 43.1878838L575.67526041 639.70139184z" fill="#DA4C55" /></svg>