<?xml version="1.0" standalone="no"?><!DOCTYPE svg PUBLIC "-//W3C//DTD SVG 1.1//EN" "http://www.w3.org/Graphics/SVG/1.1/DTD/svg11.dtd"><svg class="icon" width="200px" height="195.23px" viewBox="0 0 1049 1024" version="1.1" xmlns="http://www.w3.org/2000/svg"><path fill="#1296db" d="M938.254106 665.079853c-33.765986 20.223752-135.319942 107.185887-171.876294 111.537833a1394.363719 1394.363719 0 0 1-203.619906-9.215887c-78.795835-7.423909-48.101811-39.141921-35.583564-42.725876 12.543846-3.583956 163.479597-12.031853 214.627771-17.894181 45.285845-5.119937 38.911523-49.637792-12.28785-51.173773-51.148173-1.535981-281.366153-17.12619-360.161988-12.031853-78.770235 5.119937-192.356044 108.491471-192.356043 108.491471l4.351946 16.383799 165.75797 147.070199 22.271727-1.791978a310.012202 310.012202 0 0 1 74.418288-30.20763c33.791586-7.167912 220.515699 13.311837 285.231706 4.09595 64.716007-9.215887 230.21798-148.350183 267.311926-179.044207 17.663784-14.847818 30.438027-35.813961 25.574087-41.701889-17.663784-26.879671-62.412035-16.127802-84.427766-3.071963l0.76799 1.279985zM143.486242 780.457639a32.230005 32.230005 0 0 0-42.981873-2.303971c-10.495871 8.1919-53.964139 41.957886-66.251989 51.148173-19.199765 13.311837-2.047975 35.327567 8.703894 45.541842 10.751868 10.239875 127.896033 119.19214 145.815814 136.34393a33.50999 33.50999 0 0 0 47.052223 5.631931h1.535981c13.05584-11.007865 43.23787-37.119545 62.668033-51.173773a23.551711 23.551711 0 0 0 4.095949-41.189896c-13.567834-13.823831-145.27822-131.479989-160.638032-143.998236zM820.265152 0a102.398746 102.398746 0 0 1 102.398745 102.398746v468.55106c-10.828667 3.967951-21.273339 8.95989-31.231617 14.847818-13.03024 8.1919-28.876446 19.430162-48.332208 33.765986a125.848058 125.848058 0 0 0-29.670037-29.951633 148.631779 148.631779 0 0 0-81.330203-25.574086l-64.204014-3.32796c-73.931894-3.839953-185.725725-9.983878-258.121638-9.983877-19.455762 0-34.789974 1.279984-47.564217 1.279984-49.637792 3.327959-105.649906 27.135668-171.133904 72.65191-24.063705 16.895793-44.773852 33.535589-58.597682 45.055448V102.398746a102.398746 102.398746 0 0 1 102.398746-102.398746z m-92.107672 298.671541h-409.594982v43.237871h307.196236l-65.970391 65.970391L587.077608 435.194669l93.310857-93.285257 47.769015-43.26347zM457.389597 116.632171L364.07874 209.917429l-45.516242 43.23787h409.594982V209.917429H418.708471l65.970392-65.995992-27.289266-27.289266z"  /></svg>