<?xml version="1.0" standalone="no"?><!DOCTYPE svg PUBLIC "-//W3C//DTD SVG 1.1//EN" "http://www.w3.org/Graphics/SVG/1.1/DTD/svg11.dtd"><svg class="icon" width="200px" height="200.00px" viewBox="0 0 1024 1024" version="1.1" xmlns="http://www.w3.org/2000/svg"><path fill="#1296db" d="M742.272 1023.693c-148.403 0-268.698-120.243-268.698-268.57 0-148.326 120.295-268.57 268.698-268.57 148.403 0 268.698 120.244 268.698 268.57 0 148.327-120.295 268.57-268.698 268.57zM742.4 537.6c-120.166 0-217.6 97.434-217.6 217.6s97.434 217.6 217.6 217.6S960 875.366 960 755.2s-97.434-217.6-217.6-217.6z m109.235 305.971L719.31 791.808c-0.051-0.026-0.077-0.077-0.154-0.102-1.408-0.615-2.509-1.664-3.789-2.51-1.382-0.895-2.944-1.586-4.096-2.738-3.072-3.072-4.915-7.092-6.041-11.418-0.589-2.1-1.178-4.147-1.229-6.349v-129.69c0-13.593 11.008-24.601 24.602-24.601h1.996c13.594 0 24.602 11.008 24.602 24.602v113.152l112.486 44.006c12.16 4.762 18.458 19.226 14.03 32.333-4.455 13.081-17.92 19.84-30.08 15.078zM780.8 178.944c0-28.288-22.912-51.2-51.2-51.2h-51.2V76.8h51.2c56.55 0 102.4 45.85 102.4 102.4v268.954a322.341 322.341 0 0 0-51.2-10.445V178.944zM628.198 204.8h-1.996c-13.594 0-24.602-11.008-24.602-24.602V24.602C601.6 11.008 612.608 0 626.202 0h1.996C641.792 0 652.8 11.008 652.8 24.602v155.596c0 13.594-11.008 24.602-24.602 24.602zM268.8 76.8H576v50.944H268.8V76.8z m-50.202 128h-1.996c-13.594 0-24.602-11.008-24.602-24.602V24.602C192 11.008 203.008 0 216.602 0h1.996C232.192 0 243.2 11.008 243.2 24.602v155.596c0 13.594-11.008 24.602-24.602 24.602z m-0.998 152.218v2.764c0 13.39-10.829 24.218-24.218 24.218h-2.764c-13.39 0-24.218-10.829-24.218-24.218v-2.764c0-13.39 10.829-24.218 24.218-24.218h2.764c13.39 0 24.218 10.829 24.218 24.218zM193.382 537.6h-2.764c-13.39 0-24.218-10.829-24.218-24.218v-2.764c0-13.39 10.829-24.218 24.218-24.218h2.764c13.39 0 24.218 10.829 24.218 24.218v2.764c0 13.39-10.829 24.218-24.218 24.218zM217.6 666.982c0 13.39-10.829 24.218-24.218 24.218h-2.764c-13.39 0-24.218-10.829-24.218-24.218v-2.764c0-13.39 10.829-24.218 24.218-24.218h2.764c13.39 0 24.218 10.829 24.218 24.218v2.764zM293.402 640h150.707c-6.375 16.486-11.7 33.51-15.283 51.2H293.402c-13.594 0-24.602-11.008-24.602-24.602v-1.97c0-13.62 11.008-24.628 24.602-24.628zM268.8 360.013v-3.2c0-13.261 10.752-24.013 23.987-24.013h387.226c13.235 0 23.987 10.752 23.987 24.013v3.2C704 373.248 693.248 384 680.013 384H292.787c-13.235 0-23.987-10.752-23.987-23.987zM293.402 537.6c-13.594 0-24.602-11.008-24.602-24.602v-1.996c0-13.594 11.008-24.602 24.602-24.602h275.763c-22.426 14.49-42.829 31.718-60.928 51.2H293.402zM64 178.944v665.6c0 28.288 22.912 51.2 51.2 51.2h340.045a319.792 319.792 0 0 0 31.59 51.456H115.2c-56.55 0-102.4-45.85-102.4-102.4V179.2c0-56.55 45.85-102.4 102.4-102.4h51.2v50.944h-51.2c-28.288 0-51.2 22.912-51.2 51.2z"  /></svg>