<?xml version="1.0" standalone="no"?><!DOCTYPE svg PUBLIC "-//W3C//DTD SVG 1.1//EN" "http://www.w3.org/Graphics/SVG/1.1/DTD/svg11.dtd"><svg class="icon" width="200px" height="200.00px" viewBox="0 0 1024 1024" version="1.1" xmlns="http://www.w3.org/2000/svg"><path d="M483.2 288c-19.2 0-32-12.8-32-32s12.8-32 32-32h64c19.2 0 32 12.8 32 32s-12.8 32-32 32h-64zM736 288c-19.2 0-32-12.8-32-32s12.8-32 32-32h64c35.2 0 64 28.8 64 64v512c0 35.2-28.8 64-64 64H224c-35.2 0-64-28.8-64-64V288c0-35.2 28.8-64 64-64h64c19.2 0 32 12.8 32 32s-12.8 32-32 32H224v512h576V288h-64z" fill="#597EF7" /><path d="M416 192v128c0 19.2-12.8 32-32 32s-32-12.8-32-32V192c0-19.2 12.8-32 32-32s32 12.8 32 32zM672 192v128c0 19.2-12.8 32-32 32s-32-12.8-32-32V192c0-19.2 12.8-32 32-32s32 12.8 32 32z" fill="#597EF7" /><path d="M457.6 604.8l160-160c12.8-12.8 32-12.8 44.8 0 12.8 12.8 12.8 32 0 44.8l-179.2 179.2s-3.2 3.2-6.4 3.2c-12.8 9.6-32 9.6-44.8-3.2l-89.6-89.6c-12.8-12.8-12.8-32 0-44.8 12.8-12.8 32-12.8 44.8 0l70.4 70.4z" fill="#50E3C2" /></svg>