<?xml version="1.0" standalone="no"?><!DOCTYPE svg PUBLIC "-//W3C//DTD SVG 1.1//EN" "http://www.w3.org/Graphics/SVG/1.1/DTD/svg11.dtd"><svg class="icon" width="200px" height="200.00px" viewBox="0 0 1024 1024" version="1.1" xmlns="http://www.w3.org/2000/svg"><path d="M1024 512c0 282.767-229.242 512-512 512C229.233 1024 0 794.767 0 512S229.233 0 512 0c282.758 0 512 229.233 512 512z" fill="#EEF5FF" /><path d="M766.331 873.813H257.652c-11.412 0-20.661-9.125-20.661-20.383V170.568c0-11.257 9.249-20.382 20.661-20.382h508.679c11.411 0 20.661 9.125 20.661 20.382V853.43c0 11.258-9.25 20.383-20.661 20.383z" fill="#1F95FF" /><path d="M271.494 201.272h480.995v628.697H271.494z" fill="#FFFFFF" /><path d="M626.105 242.537h-86.867l-9.304-11.568h-35.887l-9.304 11.568h-86.866c-8.818 0-15.993-7.174-15.993-15.993v-35.435c0-8.819 7.175-15.994 15.993-15.994h228.228c8.818 0 15.993 7.175 15.993 15.994v35.435c0.001 8.818-7.174 15.993-15.993 15.993z m-84.476-4.991h84.477c6.066 0 11.002-4.936 11.002-11.002v-35.435c0-6.067-4.936-11.003-11.002-11.003H397.878c-6.066 0-11.002 4.936-11.002 11.003v35.435c0 6.066 4.936 11.002 11.002 11.002h84.475l9.304-11.568h40.669l9.303 11.568z" fill="#BCC3C7" /><path d="M397.878 172.122h228.228v10.979H397.878z" fill="#E2E8EA" /><path d="M411.479 244.533h-13.601c-9.919 0-17.99-8.07-17.99-17.989v-11.786a4.492 4.492 0 0 1 8.984 0v11.786c0 4.966 4.04 9.006 9.006 9.006h13.601a4.492 4.492 0 1 1 0 8.983zM626.105 244.533h-13.601a4.491 4.491 0 1 1 0-8.983h13.601c4.967 0 9.006-4.04 9.006-9.006v-11.786a4.492 4.492 0 0 1 8.984 0v11.786c0.001 9.919-8.07 17.989-17.99 17.989z" fill="#303030" /><path d="M380.356 525.221h14.498v43.915h-14.498zM526.857 490.972h14.498v78.164h-14.498zM497.557 466.875h14.498v102.261h-14.498zM438.957 524.645h14.498v44.491h-14.498zM409.657 536.647h14.497v32.488h-14.497zM468.257 486.72h14.497v82.416h-14.497zM585.457 483.885h14.496v85.251h-14.496zM556.157 496.642h14.497v72.494h-14.497zM644.057 471.469h14.498v97.667h-14.498zM614.756 451.129h14.498v118.007h-14.498zM673.356 439.043h14.497v130.092h-14.497z" fill="#1F95FF" /><path d="M361.61 563.986V403.417h-6.551V570.55h334.87v-6.564z" fill="#B3B3B3" /><path d="M334.07 563.986h14.204v6.563H334.07zM334.07 534.663h14.204v6.558H334.07zM334.07 476.014h14.204v6.557H334.07zM334.07 505.337h14.204v6.563H334.07zM334.07 446.684h14.204v6.563H334.07zM334.07 417.361h14.204v6.557H334.07z" fill="#CCCCCC" /><path d="M355.059 577.572h6.557v14.205h-6.557zM384.382 577.572h6.56v14.205h-6.56zM413.709 577.572h6.56v14.205h-6.56zM443.032 577.572h6.567v14.205h-6.567zM472.359 577.572h6.563v14.205h-6.563zM501.686 577.572h6.563v14.205h-6.563zM531.013 577.572h6.562v14.205h-6.562zM560.338 577.572h6.563v14.205h-6.563zM589.664 577.572h6.564v14.205h-6.564zM618.988 577.572h6.56v14.205h-6.56zM648.314 577.572h6.561v14.205h-6.561zM677.639 577.572h6.566v14.205h-6.566z" fill="#CCCCCC" /><path d="M328.339 628.855h366.43v10.64h-366.43zM328.339 692.6h366.43v10.641h-366.43zM328.339 756.349h366.43v10.642h-366.43z" fill="#B3B3B3" /><path d="M416.885 504.95l-36.902-14.753 4.826-12.072 30.995 12.393 23.304-13.649 30.084-37.774 36.555-23.111 32.034 29.45 24.559 6.13 23.859-11.071 32.605-45.474 30.789 22.78 28.174-33.798 9.985 8.323-36.028 43.223-30.045-22.229-26.908 37.529-31.125 14.443-32.226-8.044-27.142-24.954-26.283 16.618-30.226 37.952z" fill="#E71F00" /><path d="M350.333 281.548h28.691c5.421 0 9.79 1.454 13.108 4.355 3.314 2.903 4.974 6.73 4.974 11.479 0 5.471-1.846 9.47-5.536 11.999a15.477 15.477 0 0 1-3.333 1.703c0.7 0.285 1.331 0.596 1.9 0.929 3.252 1.935 4.941 5.188 5.071 9.754l0.27 9.33c0.054 1.857 0.247 3.175 0.581 3.948 0.335 0.776 0.981 1.395 1.936 1.859v1.509h-13.131c-0.312-0.595-0.582-1.863-0.816-3.814a58.846 58.846 0 0 1-0.384-6.289l-0.079-5.264c-0.051-2.555-0.805-4.375-2.263-5.459-1.458-1.083-3.874-1.626-7.254-1.626H362.22v22.491h-11.887v-56.904z m11.886 24.852h13.784c3.072 0 5.376-0.627 6.911-1.877 1.538-1.251 2.305-3.142 2.305-5.671 0-2.502-0.731-4.38-2.188-5.631-1.458-1.251-3.645-1.878-6.563-1.878H362.22V306.4zM407.598 338.452v-56.904h41.893v10.103h-30.007v12.078h27.839v9.795h-27.839v14.827h31.323v10.103h-43.209zM460.485 281.548h23.813c6.477 0 11.407 1.516 14.791 4.549 3.379 3.031 5.073 7.453 5.073 13.257 0 6.144-1.693 10.806-5.073 13.995-3.383 3.188-8.314 4.78-14.791 4.78-4.596-0.026-8.571 0-11.925 0.078v20.246H460.485v-56.905z m11.888 26.788h9.91c3.332 0 5.827-0.736 7.494-2.208 1.664-1.472 2.495-3.69 2.495-6.659 0-2.708-0.831-4.742-2.495-6.095-1.667-1.354-4.163-2.033-7.494-2.033h-9.91v16.995zM518.215 331.988c-4.932-5.343-7.396-12.569-7.396-21.68 0-9.289 2.465-16.665 7.396-22.121 4.931-5.458 11.576-8.188 19.938-8.188 8.416 0 15.081 2.729 20 8.188 4.916 5.457 7.375 12.832 7.375 22.121 0 9.11-2.459 16.337-7.375 21.68-4.919 5.34-11.584 8.012-20 8.012-8.362 0-15.007-2.672-19.938-8.012z m31.323-7.297c2.733-3.472 4.104-8.29 4.104-14.459 0-6.296-1.37-11.226-4.104-14.786-2.737-3.563-6.531-5.343-11.386-5.343-4.825 0-8.607 1.779-11.344 5.343-2.734 3.56-4.103 8.49-4.103 14.786 0 6.169 1.36 10.987 4.084 14.459 2.723 3.469 6.511 5.206 11.362 5.206 4.856 0 8.65-1.736 11.387-5.206zM575.053 281.548h28.689c5.423 0 9.789 1.454 13.106 4.355 3.316 2.903 4.975 6.73 4.975 11.479 0 5.471-1.846 9.47-5.537 11.999a15.367 15.367 0 0 1-3.328 1.703c0.696 0.285 1.329 0.596 1.896 0.929 3.252 1.935 4.942 5.188 5.072 9.754l0.271 9.33c0.051 1.857 0.243 3.175 0.58 3.948 0.336 0.776 0.982 1.395 1.937 1.859v1.509H609.58c-0.309-0.595-0.581-1.863-0.813-3.814a59.055 59.055 0 0 1-0.389-6.289l-0.074-5.264c-0.053-2.555-0.808-4.375-2.265-5.459-1.457-1.083-3.876-1.626-7.253-1.626h-11.849v22.491h-11.886v-56.904z m11.885 24.852h13.784c3.072 0 5.374-0.627 6.91-1.877 1.535-1.251 2.304-3.142 2.304-5.671 0-2.502-0.729-4.38-2.187-5.631-1.458-1.251-3.647-1.878-6.563-1.878h-14.249V306.4zM644.589 291.65h-17.19v-10.102h46.27v10.103h-17.192v46.802H644.59V291.65z" fill="#808080" /></svg>